<?xml version="1.0" encoding="UTF-8"?>
<svg id="Layer_1" data-name="Layer 1" xmlns="http://www.w3.org/2000/svg" viewBox="0 0 974.49 203.99">
  <defs>
    <style>
      .cls-1 {
        fill: #1774ff;
      }

      .cls-2 {
        fill: #0c0d13;
      }
    </style>
  </defs>
  <path class="cls-2" d="m269.34,66.02v106.44h-22.53v-106.44h22.53Z"/>
  <path class="cls-2" d="m308.04,126.3v46.16h-22.17v-79.81h21.07v14.05h.95c1.76-4.61,4.76-8.34,8.85-11.05,4.17-2.71,9.22-4.1,15.14-4.1,5.56,0,10.39,1.24,14.48,3.66s7.32,5.85,9.58,10.39c2.27,4.46,3.44,9.8,3.44,16.02v50.84h-22.17v-46.89c0-4.9-1.24-8.71-3.73-11.41-2.56-2.78-6-4.17-10.46-4.17-3,0-5.63.66-7.9,1.9-2.27,1.32-4.02,3.15-5.27,5.63-1.24,2.41-1.9,5.34-1.9,8.78h.07Z"/>
  <path class="cls-2" d="m417.92,92.65v16.61h-48.06v-16.61h48.06Zm-37.16-19.09h22.17v74.4c0,2.05.29,3.66.95,4.76.66,1.1,1.46,1.9,2.63,2.34,1.17.44,2.49.66,3.95.66,1.02,0,2.05-.07,3.15-.29,1.02-.22,1.83-.37,2.41-.44l3.51,16.46c-1.1.37-2.63.73-4.68,1.17-1.98.51-4.46.8-7.32.88-5.34.22-10.02-.51-14.05-2.12-3.95-1.61-7.1-4.17-9.29-7.61-2.19-3.44-3.29-7.75-3.29-13.02v-77.25l-.15.07Z"/>
  <path class="cls-2" d="m466.42,174c-8.19,0-15.29-1.68-21.22-4.97-5.85-3.37-10.46-8.12-13.61-14.27-3.22-6.15-4.76-13.46-4.76-21.87s1.61-15.44,4.76-21.58c3.22-6.22,7.68-11.05,13.46-14.48,5.85-3.44,12.66-5.19,20.48-5.19,5.27,0,10.17.88,14.7,2.56,4.54,1.68,8.56,4.17,11.92,7.54,3.44,3.37,6.07,7.61,7.97,12.66,1.9,5.05,2.85,10.97,2.85,17.78v6.07h-67.38v-13.75h46.53c0-3.22-.66-6-2.05-8.49-1.39-2.49-3.29-4.39-5.78-5.78-2.41-1.39-5.27-2.12-8.49-2.12s-6.36.8-8.92,2.34c-2.56,1.54-4.54,3.58-6,6.22-1.46,2.56-2.19,5.41-2.27,8.56v13.02c0,3.95.73,7.39,2.19,10.24,1.46,2.85,3.58,5.12,6.29,6.66s5.93,2.34,9.58,2.34c2.49,0,4.68-.37,6.73-1.02s3.8-1.76,5.27-3.15c1.46-1.39,2.56-3.07,3.29-5.12l20.48,1.32c-1.02,4.9-3.15,9.22-6.36,12.88s-7.32,6.51-12.36,8.49c-5.05,1.98-10.83,3-17.41,3l.07.15Z"/>
  <path class="cls-2" d="m551.94,203.99c-7.17,0-13.31-.95-18.44-2.93s-9.14-4.61-12.14-7.97c-3-3.37-4.97-7.17-5.85-11.34l20.48-2.78c.66,1.61,1.61,3.07,2.93,4.46s3.15,2.49,5.34,3.29c2.27.88,4.97,1.32,8.19,1.32,4.83,0,8.78-1.17,11.92-3.51s4.76-6.22,4.76-11.7v-14.63h-.95c-.95,2.19-2.41,4.32-4.39,6.29-1.98,1.98-4.46,3.58-7.46,4.83-3.07,1.24-6.66,1.9-10.9,1.9-6,0-11.41-1.39-16.39-4.17-4.9-2.78-8.78-7.1-11.7-12.8-2.85-5.78-4.32-13.09-4.32-21.95s1.46-16.61,4.39-22.68c2.93-6.07,6.88-10.61,11.78-13.61,4.9-3,10.31-4.54,16.17-4.54,4.46,0,8.19.73,11.19,2.27,3,1.46,5.41,3.37,7.24,5.63,1.9,2.19,3.29,4.39,4.32,6.51h.8v-13.39h21.95v80.62c0,6.8-1.68,12.44-4.97,17.05-3.29,4.54-7.9,7.97-13.83,10.31-5.85,2.34-12.58,3.51-20.19,3.51h.07Zm.44-49.38c3.58,0,6.58-.88,9.07-2.63,2.49-1.83,4.39-4.39,5.71-7.68,1.32-3.37,2.05-7.39,2.05-12.07s-.66-8.71-1.98-12.14c-1.32-3.44-3.22-6.15-5.71-8.05s-5.56-2.85-9.07-2.85-6.73.95-9.22,2.93-4.39,4.61-5.63,8.12c-1.32,3.44-1.9,7.46-1.9,12s.66,8.56,1.9,11.92c1.32,3.29,3.22,5.93,5.63,7.75,2.49,1.83,5.56,2.71,9.22,2.71h-.07Z"/>
  <path class="cls-2" d="m607.17,172.46v-79.81h21.43v13.9h.8c1.46-4.97,3.88-8.71,7.32-11.19,3.44-2.56,7.39-3.88,11.85-3.88,1.1,0,2.27,0,3.58.22,1.32.15,2.41.29,3.37.59v19.61c-1.02-.29-2.49-.59-4.32-.8s-3.51-.37-5.05-.37c-3.29,0-6.15.73-8.71,2.12s-4.54,3.29-6,5.85c-1.46,2.49-2.19,5.34-2.19,8.63v45.14h-22.17.07Z"/>
  <path class="cls-2" d="m665.55,172.46v-79.81h22.17v79.81s-22.17,0-22.17,0Zm11.12-90.13c-3.29,0-6.15-1.1-8.49-3.29s-3.51-4.9-3.51-7.97,1.17-5.63,3.51-7.83c2.34-2.19,5.19-3.29,8.49-3.29s6.07,1.1,8.41,3.29c2.34,2.19,3.51,4.83,3.51,7.83s-1.17,5.71-3.51,7.97c-2.34,2.19-5.12,3.29-8.41,3.29Z"/>
  <path class="cls-2" d="m746.39,92.65v16.61h-48.06v-16.61h48.06Zm-37.16-19.09h22.17v74.4c0,2.05.29,3.66.95,4.76s1.46,1.9,2.63,2.34c1.17.44,2.49.66,3.95.66,1.02,0,2.05-.07,3.15-.29,1.02-.22,1.83-.37,2.41-.44l3.51,16.46c-1.1.37-2.63.73-4.68,1.17-1.98.51-4.46.8-7.32.88-5.34.22-10.02-.51-14.05-2.12-3.95-1.61-7.1-4.17-9.29-7.61-2.19-3.44-3.29-7.75-3.29-13.02v-77.25l-.15.07Z"/>
  <path class="cls-2" d="m773.02,202.38c-2.78,0-5.41-.22-7.9-.66-2.41-.44-4.46-.95-6-1.61l4.97-16.53c2.63.8,4.9,1.24,7.02,1.32,2.12,0,3.95-.44,5.49-1.46,1.54-1.02,2.85-2.78,3.8-5.27l1.32-3.37-28.6-82.08h23.26l16.53,58.6h.8l16.68-58.6h23.41l-31.02,88.44c-1.46,4.32-3.51,8.05-6.07,11.19-2.56,3.22-5.71,5.71-9.58,7.46s-8.56,2.63-14.05,2.63l-.07-.07Z"/>
  <path class="cls-1" d="m862.34,172.46h-24.14l36.72-106.44h28.97l36.65,106.44h-24.14l-26.63-82.08h-.8l-26.7,82.08h.07Zm-1.54-41.84h56.91v17.56h-56.91v-17.56Z"/>
  <path class="cls-1" d="m974.49,66.02v106.44h-22.53v-106.44h22.53Z"/>
  <rect class="cls-1" x="89.16" y="-7.62" width="22.53" height="106.44" transform="translate(-2.83 84.37) rotate(-45)"/>
  <rect class="cls-1" x="34.33" y="47.21" width="22.53" height="106.44" transform="translate(-57.66 61.66) rotate(-45)"/>
  <rect class="cls-1" x="92.17" y="53.39" width="22.53" height="100.08" transform="translate(103.43 -42.84) rotate(45)"/>
  <rect class="cls-1" x="100.13" y="100.12" width="22.53" height="70.78" transform="translate(246.92 24.12) rotate(90)"/>
  <rect class="cls-1" x="124.26" y="76.03" width="22.53" height="70.6" transform="translate(271.05 222.65) rotate(-180)"/>
  <rect class="cls-1" x="32.08" y="-6.69" width="22.53" height="100.08" transform="translate(43.35 -17.96) rotate(45)"/>
  <rect class="cls-1" x="61.51" y="20.03" width="22.53" height="106.44" transform="translate(-30.48 72.92) rotate(-45)"/>
  <rect class="cls-1" x="153.09" y="41.46" width="22.53" height="26.16" transform="translate(109.82 218.89) rotate(-90)"/>
  <rect class="cls-1" x="175.13" y="43.27" width="22.53" height="158.84"/>
  <rect class="cls-1" x="125.57" y="131.43" width="22.53" height="121.66" transform="translate(-55.42 329.1) rotate(-90)"/>
  <rect class="cls-1" x="53.48" y="164.04" width="22.53" height="39.49" transform="translate(129.48 367.56) rotate(-180)"/>
</svg>